<svg width="14" height="14" viewBox="0 0 14 14" fill="none" xmlns="http://www.w3.org/2000/svg">
<circle cx="7" cy="7" r="7" fill="#FBD926"/>
<path d="M10.0557 9.5491C10.0557 9.29998 9.85411 9.09839 9.60499 9.09839H4.44144C4.19231 9.09839 3.99072 9.29998 3.99072 9.5491C3.99072 9.79823 4.19231 9.99982 4.44144 9.99982H9.60499C9.85411 9.99982 10.0557 9.79741 10.0557 9.5491Z" fill="white"/>
<path d="M3.53592 5.90096C3.5433 5.90096 3.54986 5.90096 3.55723 5.90014L4.27182 8.48642H7.02363H9.77463L10.4892 5.90014C10.4966 5.90014 10.5031 5.90096 10.5105 5.90096C10.8064 5.90096 11.0465 5.66085 11.0465 5.36502C11.0465 5.06919 10.8063 4.82908 10.5105 4.82908C10.2147 4.82908 9.97458 5.06919 9.97458 5.36502C9.97458 5.42238 9.98361 5.47811 10.0008 5.52973L8.70849 6.2853L7.31947 3.98256C7.4637 3.88668 7.55958 3.72196 7.55958 3.53594C7.55958 3.24011 7.31947 3 7.02364 3C6.72782 3 6.4877 3.24011 6.4877 3.53594C6.4877 3.72278 6.58277 3.88668 6.72782 3.98256L5.3388 6.2853L4.04648 5.52973C4.06287 5.47811 4.0727 5.42238 4.0727 5.36502C4.0727 5.06919 3.83259 4.82908 3.53676 4.82908C3.24011 4.82908 3 5.06919 3 5.36502C3 5.66085 3.24009 5.90096 3.53592 5.90096Z" fill="white"/>
</svg>
