<svg width="14" height="14" viewBox="0 0 14 14" fill="none" xmlns="http://www.w3.org/2000/svg">
<circle cx="7" cy="7" r="7" fill="#03B898"/>
<path d="M6.12061 3.00708L7.51956 4.47227L4.79796 7.32271C4.42694 7.7113 3.92372 7.92961 3.399 7.92961C2.87429 7.92961 2.37107 7.7113 2.00005 7.32271V7.32271L6.12061 3.00708Z" fill="white"/>
<path d="M6.11865 3L7.70055 4.65677C8.02332 4.99483 8.20466 5.45332 8.20467 5.9314C8.20469 6.40948 8.02337 6.86799 7.70062 7.20606L7.69676 7.2101L4.898 4.27887L6.11886 3.00022L6.11865 3Z" fill="white"/>
<path d="M7.87939 10.9929L6.48045 9.52774L9.20203 6.67732C9.38574 6.48491 9.60384 6.33228 9.84387 6.22815C10.0839 6.12402 10.3412 6.07042 10.601 6.07042C10.8608 6.07042 11.118 6.12402 11.3581 6.22815C11.5981 6.33228 11.8162 6.48491 11.9999 6.67732V6.67732L7.87939 10.9929Z" fill="white"/>
<path d="M7.88086 11L6.29896 9.34323C5.97617 9.00516 5.79483 8.54664 5.79483 8.06854C5.79483 7.59044 5.97617 7.13192 6.29896 6.79386L6.30282 6.78982L9.10158 9.72105L7.88065 10.9998L7.88086 11Z" fill="white"/>
</svg>
