<svg xmlns="http://www.w3.org/2000/svg" viewBox="0 0 1008.08 770.01"><defs><style>.cls-1{fill:#fff;}</style></defs><title>Ресурс 3</title><g id="Слой_2" data-name="Слой 2"><g id="Слой_1-2" data-name="Слой 1"><path class="cls-1" d="M178.49-14.84H377.93a0,0,0,0,1,0,0v388A199.44,199.44,0,0,1,178.49,572.6h0a0,0,0,0,1,0,0V-14.84A0,0,0,0,1,178.49-14.84Z" transform="translate(278.68 -115.04) rotate(45)"/><path class="cls-1" d="M295.25,115.59H520.77A173.51,173.51,0,0,1,694.28,289.09v.55a0,0,0,0,1,0,0h-399a0,0,0,0,1,0,0V115.59A0,0,0,0,1,295.25,115.59Z" transform="translate(288.18 -290.5) rotate(45)"/><path class="cls-1" d="M630.15,197.41H829.59a0,0,0,0,1,0,0v388A199.44,199.44,0,0,1,630.15,784.85h0a0,0,0,0,1,0,0V197.41a0,0,0,0,1,0,0Z" transform="translate(898.68 1354.51) rotate(-135)"/><path class="cls-1" d="M313.8,480.36H539.32A173.51,173.51,0,0,1,712.83,653.87v.55a0,0,0,0,1,0,0h-399a0,0,0,0,1,0,0V480.36A0,0,0,0,1,313.8,480.36Z" transform="translate(475.08 1331.57) rotate(-135)"/></g></g></svg>